# xmcd
#
# Track frame offsets:
#	150
#	19552
#	28152
#	34911
#	42092
#	52579
#	71011
#	78930
#	87937
#	101447
#	117600
#	129429
#	136856
#	156976
#	169120
#	175600
#	188062
#	199597
#	211890
#	219944
#	234286
#	248648
#	257204
#	275350
#	285021
#	294077
#	304938
#	316308
#	325879
#	340079
#
# Disc length: 4695 seconds
#
# Revision: 1
# Processed by: cddbd v1.4PL0 Copyright (c) Steve Scherf et al.
# Submitted via: audiograbber 1.80
#
DISCID=9212551e
DTITLE=sons of the pioneers - memories of the range, the standart transcription
DTITLE=s disc 
DYEAR=1900
DGENRE=
TTITLE0=me and my burro 1935
TTITLE1=old sky ball paint (sky ball paint) 1935
TTITLE2=outlaw rag 1935
TTITLE3=way down south (a way down south)1935
TTITLE4=de camp down races 1935
TTITLE5=old dog trey 1935
TTITLE6=ragtime annie 1935
TTITLE7=soldier's joy 1935
TTITLE8=oompah rag 1935
TTITLE9=pop eye's spiritual 1935
TTITLE10=west of the riogrande 1935
TTITLE11=one more river to cross 1935
TTITLE12=bring roses to your mother 1935
TTITLE13=dolly day 1935
TTITLE14=cow across the road 1935
TTITLE15=darling clementine 1935
TTITLE16=black sheep blues 1935
TTITLE17=railroad boomer 1935
TTITLE18=rocky mountain express 1935
TTITLE19=the yodeling cowboy 1935
TTITLE20=pride of the ball 1935
TTITLE21=standin' in the need of prayer 1935
TTITLE22=cowboy jack 1935
TTITLE23=roll along jordan 1935
TTITLE24=tom and jerry 1935
TTITLE25=old maderia waltz 1935
TTITLE26=rye whiskey waltz 1935
TTITLE27=where the morning glories grow 1935
TTITLE28=methodist pie 1935
TTITLE29=seein' nellie home (aunt dinah's quilting party) 1935
EXTD=
EXTT0=
EXTT1=
EXTT2=
EXTT3=
EXTT4=
EXTT5=
EXTT6=
EXTT7=
EXTT8=
EXTT9=
EXTT10=
EXTT11=
EXTT12=
EXTT13=
EXTT14=
EXTT15=
EXTT16=
EXTT17=
EXTT18=
EXTT19=
EXTT20=
EXTT21=
EXTT22=
EXTT23=
EXTT24=
EXTT25=
EXTT26=
EXTT27=
EXTT28=
EXTT29=
PLAYORDER=
